# xmcd CD database file
#
# Track frame offsets:
#	150
#	1281
#	16789
#	34274
#	50733
#	68218
#	85702
#	101130
#	119646
#	139188
#	158733
#	179303
#	196788
#	211188
#	227647
#	245132
#	259954
#	275329
#
# Disc length: 3992 seconds
#
# Revision: 0
# Processed by: cddbd v1.5.2PL0 Copyright (c) Steve Scherf et al.
# Submitted via: Feurio! 1.68 - http://www.feurio.com
#
DISCID=fb0f9612
DTITLE=Various Artist - Power Aerobic - 2008/II - Club
DYEAR=2008
DGENRE=Aerobic - Tae Bo
TTITLE0=Move Ya! - Intro
TTITLE1=Dan Winter - Get This Party Started
TTITLE2=G and G feat. Gary Wright - My My My (Comin' Apart)
TTITLE3=Eddie Thoneick feat. Bonse - Together As One (Klaas Remix)
TTITLE4=Niels de Vries - 12 Inch
TTITLE5=Roy Gates - Take U Down
TTITLE6=DB Javelin - Higher
TTITLE7=Playahitty - The Summer Is Magic 2008
TTITLE8=Bad Habit Boys - Let Yourself Go
TTITLE9=Lange vs. Gareth Emery - Another You Another Me
TTITLE10=DJ Tiesto - Break My Fall (Airbase Remix)
TTITLE11=CRW - I Feel Love
TTITLE12=4 Strings - Catch A Fall (Bass Up! Remix)
TTITLE13=Hampenberg - Acid Disco Plastic Electro (RBB Remix)
TTITLE14=Rushroom - Better Off Alone
TTITLE15=Paffendorf vs. Real Booty Babes - On and On 2008
TTITLE16=PLD vs. Fox The Fox - Precious Little Diamond (Ibiza Soul Edit)
TTITLE17=Frank Borell - Tell Me (Dream Mix)
EXTD=Summer 08\r\nCardio: 57:43\r\n140 BPM
EXTT0=
EXTT1=
EXTT2=
EXTT3=
EXTT4=
EXTT5=
EXTT6=
EXTT7=
EXTT8=
EXTT9=
EXTT10=
EXTT11=
EXTT12=
EXTT13=
EXTT14=
EXTT15=
EXTT16=
EXTT17=
PLAYORDER=
